<svg width="21" height="22" viewBox="0 0 21 22" fill="none" xmlns="http://www.w3.org/2000/svg">
<g id="9041953_tag_icon 1">
<g id="Group">
<path id="Vector" fill-rule="evenodd" clip-rule="evenodd" d="M11.9142 4H15.4999C16.6045 4 17.4999 4.89543 17.4999 6V9.58579C17.4999 9.851 17.3946 10.1054 17.207 10.2929L10.4142 17.0858C9.63311 17.8668 8.36678 17.8668 7.58573 17.0858L4.41416 13.9142C3.63311 13.1332 3.63311 11.8668 4.41416 11.0858L11.207 4.29289C11.3946 4.10536 11.6489 4 11.9142 4Z" stroke="#3B4030" stroke-linecap="round" stroke-linejoin="round"/>
<path id="Vector_2" d="M15 7.5C15.5523 7.5 16 7.05228 16 6.5C16 5.94772 15.5523 5.5 15 5.5C14.4477 5.5 14 5.94772 14 6.5C14 7.05228 14.4477 7.5 15 7.5Z" fill="#3B4030"/>
</g>
</g>
</svg>
