<svg width="13" height="13" viewBox="0 0 13 13" fill="none" xmlns="http://www.w3.org/2000/svg">
<path d="M11.5811 1.31348C11.9027 1.63509 12.1058 2.02018 12.1904 2.46875C12.2793 2.91309 12.3237 3.40609 12.3237 3.94775L12.3237 8.87988C12.3237 9.42578 12.2793 9.9209 12.1904 10.3652C12.1058 10.8096 11.9027 11.1947 11.5811 11.5205C11.2552 11.8421 10.868 12.0474 10.4194 12.1362C9.97087 12.2251 9.47575 12.2695 8.93408 12.2695L4.00195 12.2695C3.46029 12.2695 2.96517 12.2251 2.5166 12.1362C2.07227 12.0474 1.68717 11.8421 1.36133 11.5205C1.03548 11.1947 0.830241 10.8096 0.745605 10.3652C0.66097 9.9209 0.618652 9.42578 0.618652 8.87988L0.618652 3.93506C0.618652 3.40186 0.66097 2.91309 0.745605 2.46875C0.834473 2.02441 1.03971 1.63932 1.36133 1.31348C1.68717 0.991862 2.07227 0.786621 2.5166 0.697754C2.96517 0.608887 3.45605 0.564453 3.98926 0.564453L8.93408 0.564453C9.47575 0.564453 9.97087 0.608887 10.4194 0.697754C10.868 0.786621 11.2552 0.991862 11.5811 1.31348ZM11.3018 3.77637C11.3018 3.45052 11.2721 3.13102 11.2129 2.81787C11.1536 2.50472 11.0267 2.25293 10.832 2.0625C10.6416 1.86784 10.3877 1.74089 10.0703 1.68164C9.75716 1.61816 9.43766 1.58643 9.11182 1.58643L3.84961 1.58643C3.5153 1.58643 3.18734 1.61816 2.86572 1.68164C2.54834 1.74089 2.29443 1.86572 2.104 2.05615C1.91357 2.25081 1.78874 2.50684 1.72949 2.82422C1.67025 3.13737 1.64063 3.4611 1.64063 3.79541L1.64063 9.05762C1.64063 9.38346 1.67025 9.70296 1.72949 10.0161C1.78874 10.3293 1.91357 10.5811 2.104 10.7715C2.29867 10.9619 2.55257 11.0889 2.86572 11.1523C3.18311 11.2158 3.50472 11.2476 3.83057 11.2476L9.11182 11.2476C9.43766 11.2476 9.75716 11.2158 10.0703 11.1523C10.3877 11.0931 10.6416 10.9661 10.832 10.7715C11.0225 10.5811 11.1473 10.3293 11.2065 10.0161C11.27 9.70296 11.3018 9.38346 11.3018 9.05762L11.3018 3.77637ZM3.53223 6.41699C3.53223 6.25618 3.58089 6.12712 3.67822 6.02979C3.77979 5.92822 3.91309 5.87744 4.07813 5.87744H5.94434V4.01123C5.94434 3.85042 5.993 3.71924 6.09033 3.61768C6.18766 3.51611 6.3125 3.46533 6.46484 3.46533C6.62565 3.46533 6.75472 3.51611 6.85205 3.61768C6.95361 3.71501 7.00439 3.84619 7.00439 4.01123L7.00439 5.87744H8.87695C9.03776 5.87744 9.16683 5.92822 9.26416 6.02979C9.36572 6.12712 9.4165 6.25618 9.4165 6.41699C9.4165 6.56934 9.36572 6.69417 9.26416 6.7915C9.16683 6.88883 9.03776 6.9375 8.87695 6.9375H7.00439V8.81006C7.00439 8.97087 6.95361 9.10205 6.85205 9.20361C6.75472 9.30094 6.62565 9.34961 6.46484 9.34961C6.3125 9.34961 6.18766 9.30094 6.09033 9.20361C5.993 9.10205 5.94434 8.97087 5.94434 8.81006V6.9375H4.07813C3.91732 6.9375 3.78613 6.88883 3.68457 6.7915C3.58301 6.69417 3.53223 6.56934 3.53223 6.41699Z" fill="#3B4030"/>
</svg>
