<svg width="421" height="421" viewBox="0 0 421 421" fill="none" xmlns="http://www.w3.org/2000/svg">
<path d="M212.75 66.0104C233.047 66.252 253.073 70.6945 271.568 79.058C290.064 87.4215 306.626 99.5247 320.213 114.605C333.799 129.686 344.116 147.416 350.512 166.681C356.908 185.945 359.245 206.325 357.375 226.537L240.275 215.707C240.649 211.665 240.182 207.589 238.902 203.736C237.623 199.883 235.56 196.337 232.843 193.321C230.125 190.305 226.813 187.884 223.114 186.212C219.415 184.539 215.409 183.65 211.35 183.602L212.75 66.0104Z" fill="#3B82F6"/>
<path d="M357.359 226.717C355.211 249.63 347.714 271.719 335.471 291.205C323.228 310.691 306.58 327.031 286.869 338.908L226.174 238.182C230.116 235.806 233.445 232.538 235.894 228.641C238.343 224.744 239.842 220.326 240.272 215.743L357.359 226.717Z" fill="#60A5FA"/>
<path d="M286.587 339.078C268.008 350.216 247.198 357.111 225.644 359.269C204.09 361.427 182.326 358.794 161.909 351.561C141.491 344.327 122.924 332.67 107.537 317.424C92.149 302.178 80.3211 283.719 72.8988 263.369L183.38 223.074C184.864 227.144 187.23 230.836 190.307 233.885C193.385 236.934 197.098 239.265 201.182 240.712C205.265 242.159 209.618 242.685 213.929 242.254C218.24 241.822 222.402 240.443 226.117 238.216L286.587 339.078Z" fill="#BFDBFE"/>
<path d="M72.7877 263.064C64.709 240.76 62.1477 216.833 65.3226 193.325C68.4974 169.818 77.3141 147.427 91.0199 128.066C104.726 108.705 122.913 92.9483 144.03 82.1413C165.146 71.3344 188.565 65.7983 212.285 66.0056L211.257 183.601C206.513 183.56 201.829 184.667 197.606 186.828C193.383 188.99 189.745 192.141 187.004 196.013C184.263 199.885 182.499 204.364 181.865 209.065C181.23 213.767 181.742 218.552 183.358 223.013L72.7877 263.064Z" fill="#DBEAFE"/>
</svg>
