<svg width="14" height="13" viewBox="0 0 14 13" fill="none" xmlns="http://www.w3.org/2000/svg">
<path d="M1.19531 12.3594C1.10156 12.2708 1.03906 12.1667 1.00781 12.0469C0.981771 11.9271 0.984375 11.8073 1.01562 11.6875C1.04688 11.5677 1.10677 11.4635 1.19531 11.375L6.19531 6.36719L1.19531 1.36719C1.10677 1.27865 1.04688 1.17448 1.01562 1.05469C0.989583 0.934896 0.989583 0.815104 1.01562 0.695312C1.04688 0.575521 1.10677 0.471354 1.19531 0.382812C1.28385 0.289062 1.38802 0.229167 1.50781 0.203125C1.6276 0.171875 1.7474 0.171875 1.86719 0.203125C1.99219 0.229167 2.09896 0.289062 2.1875 0.382812L7.1875 5.38281L12.1875 0.382812C12.276 0.289062 12.3802 0.229167 12.5 0.203125C12.6198 0.171875 12.7396 0.171875 12.8594 0.203125C12.9792 0.229167 13.0859 0.289062 13.1797 0.382812C13.2682 0.471354 13.3281 0.575521 13.3594 0.695312C13.3906 0.815104 13.3906 0.934896 13.3594 1.05469C13.3281 1.17448 13.2682 1.27865 13.1797 1.36719L8.17969 6.36719L13.1797 11.375C13.2682 11.4635 13.3255 11.5677 13.3516 11.6875C13.3828 11.8073 13.3828 11.9271 13.3516 12.0469C13.3255 12.1667 13.2682 12.2708 13.1797 12.3594C13.0911 12.4531 12.9844 12.513 12.8594 12.5391C12.7396 12.5703 12.6198 12.5703 12.5 12.5391C12.3802 12.5078 12.276 12.4479 12.1875 12.3594L7.1875 7.35938L2.1875 12.3594C2.09896 12.4479 1.99479 12.5078 1.875 12.5391C1.75521 12.5703 1.63542 12.5703 1.51562 12.5391C1.39583 12.5078 1.28906 12.4479 1.19531 12.3594Z" fill="#3B4030"/>
</svg>
