<svg width="40" height="40" viewBox="0 0 40 40" fill="none" xmlns="http://www.w3.org/2000/svg">
<rect width="40" height="40" rx="9" fill="#F0F2EB"/>
<path d="M11.6191 13.9046H30.6667L28.2506 22.3608C27.8768 23.6692 26.681 24.5712 25.3203 24.5712H15.1087C13.5558 24.5712 12.2513 23.4036 12.0798 21.8602L10.8572 10.8569H7.80957" stroke="#3B4030" stroke-width="1.45455" stroke-linecap="round" stroke-linejoin="round"/>
<path d="M14.6664 29.9046C15.508 29.9046 16.1902 29.2223 16.1902 28.3807C16.1902 27.5392 15.508 26.8569 14.6664 26.8569C13.8248 26.8569 13.1426 27.5392 13.1426 28.3807C13.1426 29.2223 13.8248 29.9046 14.6664 29.9046Z" fill="#3B4030"/>
<path d="M26.8568 29.9046C27.6984 29.9046 28.3806 29.2223 28.3806 28.3807C28.3806 27.5392 27.6984 26.8569 26.8568 26.8569C26.0152 26.8569 25.333 27.5392 25.333 28.3807C25.333 29.2223 26.0152 29.9046 26.8568 29.9046Z" fill="#3B4030"/>
</svg>
